<svg width="272" height="34" viewBox="0 0 272 34" fill="none" xmlns="http://www.w3.org/2000/svg">
<path d="M0 0.607916H7.15216V12.8531H21.8054V0.607916H29.0011V33.2618H21.8054V19.8008H7.15216V33.2618H0V0.607916Z" fill="black"/>
<path d="M33.8419 16.8046C33.8419 6.94763 40.8196 0 50.9373 0C60.8805 0 67.771 6.99105 67.771 16.8046C67.771 26.8352 60.8805 33.9566 50.9373 33.9566C40.8196 33.9566 33.8419 26.8352 33.8419 16.8046ZM60.4008 16.5875C60.4008 10.9425 56.5631 6.90421 50.9373 6.90421C45.1371 6.90421 41.2121 10.8991 41.2121 16.5875C41.2121 22.7101 45.0935 27.0089 50.9373 27.0089C56.6067 27.0089 60.4008 22.7101 60.4008 16.5875Z" fill="black"/>
<path d="M83.4709 0.607916L91.8877 22.5364L100.305 0.607916H111.12V33.2618H103.924V11.1162L94.9841 33.2618H88.7478L79.764 11.1162V33.2618H72.6118V0.607916H83.4709Z" fill="black"/>
<path d="M117.269 0.607916H142.651V7.55555H124.421V13.5479H141.211V20.1481H124.421V26.3142H142.869V33.2618H117.269V0.607916Z" fill="black"/>
<path d="M146.75 16.8046C146.75 6.94763 153.728 0 163.584 0C171.172 0 177.496 4.68966 178.499 12.636H171.128C170.474 9.11878 167.552 6.99106 163.54 6.94764C157.74 6.90422 154.207 10.5951 154.207 16.6309C154.207 23.1009 157.696 27.0524 163.366 27.0524C167.77 27.0524 170.867 24.6641 171.521 20.7561H178.891C177.583 29.0932 171.085 34 163.715 34C153.728 33.9566 146.75 26.8352 146.75 16.8046Z" fill="black"/>
<path d="M183.688 0.607916H190.84V27.0089H208.546V33.2618H183.688V0.607916Z" fill="black"/>
<path d="M210.683 19.5837V0.607916H217.879V19.5402C217.879 24.1865 220.539 26.8352 225.075 26.8352C229.61 26.8352 232.314 24.143 232.314 19.5402V0.607916H239.51V19.5837C239.51 28.6156 234.146 33.8697 225.118 33.7829C216.004 33.7395 210.683 28.4419 210.683 19.5837Z" fill="black"/>
<path d="M272 24.1865C272 29.3972 267.726 33.2618 261.621 33.2618H245.179V0.607916H260.53C266.81 0.607916 270.604 3.99488 270.604 9.20561C270.604 12.7229 268.816 15.2848 265.851 16.3704C269.907 17.2388 272 20.3653 272 24.1865ZM258.045 13.765C261.751 13.765 263.321 12.8966 263.321 10.8557C263.321 8.5977 261.664 7.55555 257.827 7.55555H252.244V13.765H258.045ZM264.63 23.0141C264.63 20.8863 263.016 19.9745 259.222 19.9745H252.288V26.3576H259.048C262.973 26.3142 264.63 25.3155 264.63 23.0141Z" fill="black"/>
</svg>
